# xmcd
#
# Track frame offsets: 
#        150
#        21558
#        40457
#        61569
#        88644
#        106980
#        130871
#        145721
#        166361
#        180314
#        205473
#        231121
#        250838
#        271326
#        292905
#
# Disc length: 4079 seconds
#
# Revision: 0
# Processed by: cddbd v1.5.2PL0 Copyright (c) Steve Scherf et al.
# Submitted via: ExactAudioCopy v1.0b3
#
DISCID=ce0fed0f
DTITLE=Сергей Дроздов - Буду я с Тобой
DYEAR=2007
DGENRE=Blues
TTITLE0=Буду я с Тобой
TTITLE1=Где то Далеко
TTITLE2=Не Надо
TTITLE3=Настанет День
TTITLE4=Берег Ночи
TTITLE5=Не Плачь
TTITLE6=Ах Какая Ты Любовь
TTITLE7=Осень Прошла
TTITLE8=Ты Солнце я Море
TTITLE9=Сон
TTITLE10=Женщина
TTITLE11=Ты и Вы
TTITLE12=Дурацкая судьба
TTITLE13=Нам Снова 25
TTITLE14=Клён (дуэт с Чижом)
EXTD=
EXTT0=
EXTT1=
EXTT2=
EXTT3=
EXTT4=
EXTT5=
EXTT6=
EXTT7=
EXTT8=
EXTT9=
EXTT10=
EXTT11=
EXTT12=
EXTT13=
EXTT14=
PLAYORDER=
